<mxfile host="app.diagrams.net" agent="Mozilla/5.0 (Macintosh; Intel Mac OS X 10_15_7) AppleWebKit/537.36 (KHTML, like Gecko) Chrome/129.0.0.0 Safari/537.36" version="24.8.2">
  <diagram id="l8hXMBHkgcEJcSW0mbfh" name="Page-1">
    <mxGraphModel dx="1209" dy="922" grid="1" gridSize="10" guides="1" tooltips="1" connect="1" arrows="1" fold="1" page="1" pageScale="1" pageWidth="1169" pageHeight="827" math="0" shadow="0">
      <root>
        <mxCell id="0" />
        <mxCell id="1" parent="0" />
        <mxCell id="P9Sf4jroClefKWnIGwKn-1" value="" style="rounded=1;whiteSpace=wrap;html=1;dashed=1;dashPattern=1 1;fillColor=#f5f5f5;strokeColor=#666666;fontColor=#333333;" parent="1" vertex="1">
          <mxGeometry x="26.72" y="70" width="240" height="120" as="geometry" />
        </mxCell>
        <mxCell id="P9Sf4jroClefKWnIGwKn-3" value="Image Reader" style="text;strokeColor=none;fillColor=none;html=1;fontSize=24;fontStyle=1;verticalAlign=middle;align=center;" parent="1" vertex="1">
          <mxGeometry x="51.72" y="30" width="190" height="40" as="geometry" />
        </mxCell>
        <mxCell id="P9Sf4jroClefKWnIGwKn-4" value="" style="shape=image;verticalLabelPosition=bottom;labelBackgroundColor=default;verticalAlign=top;aspect=fixed;imageAspect=0;image=data:image/png,iVBORw0KGgoAAAANSUhEUgAAAOEAAADhCAMAAAAJbSJIAAAAaVBMVEX////GK0fFJ0TEHz/CADHDEjjEGTzCCzX79fXMRFv+/P3029/vzNHag5Dswsj56ezek57JM0/NTGL78PLYeojQW23biJTns7rTbXzgmqTWdYPKO1TRYnPOUmbkqrLioqvAACi+ABW/AB+hrZhhAAAJ50lEQVR4nO2d2YKqOBCGJSuyKyIqNnrm/R9ySCAhYRHstodJTv5LVMxHtqpKqOx2Tk5OTk5OTk5OTk7WyU9u9Lk/J8HWBfklpTHG0PMAxCTzty7Mb+iMGrxOhNRbF+fjCo7EU0XvW5fowwr20NNF9nb1xmII6Hnwa+tCfVIlHQE2tXjaulgfFASCiiIsqxOVW5frYypxiwRgmabRXVYoybcu2afU9ULgtUQlEl3xtnHBPqWga5c07C4kAhFFmxbsY8rbRgoKeUUggmrDYn1QacsD4/6SaKgk265YH1TaDi3wolx7dIgo3axYH1TXSj2oXrxSm+b9Qzsdkqt6MW4RqRWT4rkbTJHmUcRt1UIbPKlQzg5ahZ04IrTCeLsISw0l6uU796hQOPczgyTGmiFiwRDBfqtifVLSUBuYMV+scvFjq2J9UmdRiwBrjZIjIiss8DuRiOokH1RwYAuYK+nm64j+AdpigfPa6txEFTFvvCpw2KxYn1QfjRKOYqscAI9YMdi0DbK1YyrVkEkh8LAVg80un0PEAFoSP2UNskPUwqUhBjSZ/ZVRSmXUTXebImTJYKMikkK9HlFL3P2mQdJpxORJrXD3G4VEImqmTPks5n5imkIkELHmGtZ/LBlsWEMVjgY+q9draoO7zxVJX4pqw0tmhwXOlMwhWmGBc/WISLNIremJmtNvEZWmR49oQyRqSleBaMvyzFiZCN3osXCbdBOhGzsiUVP66txFO8LeikrRKn2vs9+sMbq5wuIpZ3mxoGFTT/RjBGFvx5zbrgjAhkX6rErIAsA9od8NNtSSOTEtuPurEIqlRUuaad1th1IJu54IbfB+80K4hSqhWAGH5u9UTIjcz6YRnqAlk/5ZGtoDwppYMdTk2g5hjTBprVNqtu8bQm0DrUbYBW2w0YSlDK5ZSpghz7Oa8DbaAW1ZP7zgnuzFWGruDj65QcEDODtMEN46s83UGb8HhDDc7cGYsHURwXGzIv5MPSA5+rspwm6ggef5m/yf1QNivog9QRhDk4fSiwSk7QboMaHY8Ia3KuOPdOq363Xe35iwq0J1C7g5usp5UC5NjAhFnMbIsLeyMCF3Bg8Jgy7WBkzc7B1OLS4NCcVWNxO3tflyy4W6ejYgFCORkSEMEc3W17E1wuBLDLXYQItN7pcl2rtblUIYSTOVGvhOsFynH7wvcpCEwVn6jMTAHW2yEwJP31zREYJ7Bnp79WigzX2X7x4MpjmxEAP6oIaRgPKl31EH04MZvImaCJhPjzJMeAhIjVw4FO/HTGynHARsIDJwFFXfgB3ZmolWhwDdDZwHd3K89PBwNSk/qYCA7g001ZiybhoYhiXSWEn84QF8MHWfUC7a6FNrgXmM1ag38YzsgFxd5Ex/g9nPqB7VN9LfbSV8JnUcDa5ET9ziEYNfjJUOn+xlwQMO+IwmFFUoHb7gMaw/wwmFQSqWO2tP4wPGE8oqbM210sOqIQro8WA6obDX+CpLWWl8kM3wnY9vLGGXHIJPBoP6g6hgFozphF1018NpchjUX9FaaIYTBtLs3A/q7y4sUMMJ636lcNw+WxlOuB978IwvHH8Fm2l1h+OEZUCtPyazCWM44IPoOPQAzSYkC/XHZDRhpDXSGQ/eaMKT6sHTr+kIhdGE/RTR2J9zERiTCWUjfRlhMpkwg6L+XpXeZEK+bgbG84Mugwnz58v+J2QwYYSb/rdcboMJr8+X/U/IYMLTujKbS7h2DdBcwrVyhObLEZovR2i+/h5CQ1fwV8gRmi9HaL4coflyhObLEZovR2i+HKH5coTmyxGar7+G0OAsH0tyhObLEZovQWhiBoV1sp+wsp4wo7YTdgcC2kzYIlpNuLth2wkZouWEuxO2nXAX/2M74e5kPeHOmuNknJycnJycnJycnJycnJycfqI8DKMkicLwe6fvlPfindQj/uOmhF2+CGylnNecxsXrwEx6EbqLfw6OVXWYSIEdRI/bniJKcSNKEari8t3ki48nhLha+8oHy8UGYZ9fTx6dDjxxKacN8FwKAq4EdY8FyhOQ/ScAcHhcQlDeISUyyXT7P5DQ6vzOemTA3zpf8dIyV93mYuuPFJN5B/qUdG0iRUD3sy2jT4kpk/H5aJR5MchIm5mwYSeE1SHpaAFE1fpm54ukeXQ59abMldRnCZwgFOkkAJ5LlriKsG4TvzVV5hXnR11GUVJe4z2knBLgam09+jKJKkSnl4zRUR6SvopwnnEFYdCeaEbQfdDt/CireFJNgFYmY/TVo7XQeTawGRbKCUcvCdW8NYDAx/id4WXCnOf+hvA6OXiGMX/WK1MS+1oSFjJzaF96U5ORridkt4TX4WNbJPQP7B70Nvu8U34kGFx1/oA/yIVEyLhh5eenXup3CFlTy/SqWCTk+Sb1062H4uuSZE1D9UfpmofZYpsJYpQv6S3CpiQ4VnvTEiHPno21E8rHOrFafK5YEBkTDvKx1BPJLF8SnseErIvf+sIsEbLMxMvHJ7B9HnBFAvsJQnXqaCaIqfK+Tcjy8Mk8dQuEPPXN8iEm/Gt02Y6bJORTR/PbaE/B5KffIGT37HKFLBCy1DdrjoNiVY2XZ/4ZwubP8e1rmu+7hDwjdB0sEhb66bOzYh1+xbFRs4TNr2f41hOC0S0ABte8twkmCVkHmxjRR3qQVcdfK4SAklmm5j9pP+KsJARfVz0nJr9IlDzRk4TVO4SjVP5jQjkfgn2aeKMCCb5mTivJqGCvZwu2QSGp6HyrnSY8gnX5sVl/XfG9npBXeD1O5Mw+wsycy9GoYMuEzXBVoFnGSUJ2A1AtE65szQPCxmcZPXNIz3xMTr9H2NiRlznGSUI+EC3PFjwD7opTFIeELGG8boPSuJtzvk3I3H481TamCXnm1+W5/L5yUlG8Jzkspf0zh/Qmn9IPCJvnlpGJcWzaprmyp4EX2l/NJ/wVsYkpwqZd3TkjRBelFfyIkCUzB6NxbMby5gdKoJeTec0Ks8q5mCZsxoc7QfCmFfGHhDuWEHtgQ8wQhvxrNJ71/4KYlQV4a2Jvc4TNJ+ngD35O2Iwix2lHc+ABR62L681UY83PVoJkVdRtnnCkTxCyxoEWZnymkDv5zAIa3iOIzpC3dlKtCyt+nrC3yeh0EcKLdKjnI1HBjX8JEHS4XMsoTBuFSX0uYDubwefag0x/k3D2gHg5ebyKJoaX1orksUQWDEYUi+ApfONQnl8lnN+wl18xK74cLycImz/MvGFAuA0Jw+yNuLf/B3V6Lhmx6R/a6SkJm+fbSca8b1Rcer7akhg8PNS3NF6MCUstfNw9REm3dtDUJTrc6jf3cqZSi1sk01BINr+g14tLc/dTWjEvwfTX8qjM4ktxj7M6Ct0+TicnJycnJycnJyen/0T/AneAcP1i599FAAAAAElFTkSuQmCC;" parent="1" vertex="1">
          <mxGeometry x="50" y="100" width="60" height="60" as="geometry" />
        </mxCell>
        <mxCell id="P9Sf4jroClefKWnIGwKn-8" style="edgeStyle=orthogonalEdgeStyle;rounded=0;orthogonalLoop=1;jettySize=auto;html=1;" parent="1" source="P9Sf4jroClefKWnIGwKn-6" target="P9Sf4jroClefKWnIGwKn-4" edge="1">
          <mxGeometry relative="1" as="geometry" />
        </mxCell>
        <mxCell id="P9Sf4jroClefKWnIGwKn-6" value="" style="shape=image;verticalLabelPosition=bottom;labelBackgroundColor=default;verticalAlign=top;aspect=fixed;imageAspect=0;image=https://www.syntera.ch/blog/wp-content/uploads/2024/07/dajngo.jpg;" parent="1" vertex="1">
          <mxGeometry x="160" y="100" width="106.72" height="60" as="geometry" />
        </mxCell>
        <mxCell id="P9Sf4jroClefKWnIGwKn-10" value="" style="rounded=1;whiteSpace=wrap;html=1;dashed=1;dashPattern=1 1;fillColor=#f5f5f5;fontColor=#333333;strokeColor=#666666;" parent="1" vertex="1">
          <mxGeometry x="377.5" y="150" width="145" height="220" as="geometry" />
        </mxCell>
        <mxCell id="P9Sf4jroClefKWnIGwKn-14" style="edgeStyle=orthogonalEdgeStyle;rounded=0;orthogonalLoop=1;jettySize=auto;html=1;exitX=0;exitY=0.5;exitDx=0;exitDy=0;" parent="1" source="P9Sf4jroClefKWnIGwKn-9" target="P9Sf4jroClefKWnIGwKn-6" edge="1">
          <mxGeometry relative="1" as="geometry" />
        </mxCell>
        <mxCell id="P9Sf4jroClefKWnIGwKn-9" value="" style="shape=image;verticalLabelPosition=bottom;labelBackgroundColor=default;verticalAlign=top;aspect=fixed;imageAspect=0;image=data:image/png,iVBORw0KGgoAAAANSUhEUgAAAT4AAACfCAMAAABX0UX9AAAAjVBMVEX///8jHyAAAAAgHB0dGBrFxMTx8PBOS0wbFxj4+PgSCw0pJSbq6enf3t4aFRYMAgajoaEyLzCWlZXZ2Ng6NzePjY1kYmK2tbUXERNXVVUPBwm9vLzPzs719fUMAAWBf4BBPj91c3OrqqpaWFidnJxraWl6eHjKyck3MzRIRUaHhYawr69ubG3T0tMvKiz7pRz1AAAQMElEQVR4nO1d6WKyOhCVBEHC5i6L+75U3//xrloyWUgQ7NfaXjn/KgjxdJjMTqNRo0aNGjVq1KhRo0aNGi+DY/nputtNe5bz6qX8PVinjwtCSZIghIdr79XL+VvwugaJsPEJHBBjWxNYHukcUe4yBpNO+9WL+itwZsg0ZGA0rAWwFIZRjrwbyKrm7zGcTahk78rffPLqxf1+zIiGPcMIF7UJ8wDNEGvpM8L1q5f3y2HNWxxdLZIkAb9/kFr9FaIdclwhe7BexyEnj8ng1Qv81Zj0wWTB5sy6f+a0XZBAjP0Xr/BXI2VEkRQ+PTNSa+1XhC3ddrGRch/74MCZh5et7ffDuVCakq5woA20XurNQwsPUZYiSzhg2XRDNpsvWtsfwI7SFy2kI92EiuXyJSv7E1hSsyU8SUdGlNiwjrxoAfQF8iPqU/qmNX1aAH0klY6Ma/oe46R9RPVHagDOlKRWLB05UsuFyFqxBsCi9BlIdM68PiQ+asNFjwP1zqKNENpj3kinDpnqMaDmnREduY9T+DhYvWxtfwBjA4JTaEYdD6fN8m5I3pLpOZ5/haU++D6IWXSU2KPJ9Ql2misIGBjmXMWQNZqt5vt+v29/dN87oJXC5nHlCk3tVRwgLt6MFC5b70hQFOAbzCBBq/SNEyLOh5ClNIMWn/po9XNfsAYGEbIjQRSfX7DwXwIv0qeKcM6Xa/RslDs/IG9sWqdYy1/+0U3DQHEeTjbv+wCv8/KUsSdHsRpNQ3fq7H356+J8ictVpMJclq2nI/rG3ytW/juQGvkql8jIKTTPbimIo/xpDMR3gLdFwg6CA7TJb6czvhgGS5u0uX/npMh42IFdoRW6Q0Wg4MwZLDi5XE3EfsRtJPln/a3QW64+n00ct5WGHFdLRHC7N2k0/HTFtCHuvLP4NSDCHI2URz0XmCILcOVGbC9O3tj6u6GYviW4d2TLWSkjeKSD1fsaLzcU0zekes4UPbk2C7m+dwCmkL7JHAoSxOOsUgG9d2C6kL4eZallS0K2nlJeu6ov/hAc/3xOX/r/K6RvR/eISPYvxtRpJnrPY+J7Gb5DPzq9QTzvuC7J1Aq918+Gcwvpg1K2nIz5ex2xDE2UwfiG8OpoiMg9/mjO739bfXq3H62uK6YvekhfgfQ1s/0F9/85fd4H2PuUPjvz4X82R30uJX1E9i7O7ivpc1aQ1nolfU5vtP0UMLxJx3kNBSQFcmxvlOiIZfg++hZT4/X0Wev4gujjGSBjNZA9MI8+otjtiUdWVC6R2mC84dvoO3O5mlfR58+isCVGXBK0lViCaBX5ED7fMbNZ7/R+G30LCLVhgpB7/+xn6XO6F6IIg0bGQNj3t7DQkJcyH2jFc71R8l30+VBM0uoMdtbngn+UPn+oiSHj8MAE0BlcuNgK4886QBymqAfku+jb0f8p3rMo0U/St8PqfsobgiDLFTlLlxdQTBa9u6RZpwvrbHAL8pXfRR8UKPJ69wfpaxqqPAcTwHsIfryRBZS4m+5pfbSn7PNArnETbvNN9NESbGxyiubn6EsLsrz3ZV0Nd3+G8tlJHJAwISb/Qa/gPt9FHw3htmJO7/4Yfb4u8chYcbdzfccqh+JY/XP0Oc4jD5lG0f4FfQ9vJsOyVUlviT9OPrH+dGIX3rw6fefRejaMV7P1qOgbQB9fR1edPqu5PC7ieHFc7kp+44aFJFet5OpmT7UcRfOh7lhwKKZFTZ/THVAcx/zpXtd2o5AEQRAl5GKP7optfMzO7XrwJw1C4v7nkU8y1PQ14WYDwW23msM9DknUCiIS4vnsfnWnTRemDYIJFruBpyjupmna3qBQtZ1EaOA5GiOHGA/SRGr6ZohkQEOuiNU6uqHJyzyKb7+hnZ0dfro9y9ufzJi6H+kX0DcmCb2ZwctYekARq1PBZmJ0rw+SFWd3Q7ogpiOMgIg6bVYeecipO5x83H/4OsinyksM3VDS12XZkw3H3hLnrPgAHR0wUnDnTt8pP4KhyGk7d6hMYMJJuh+H8g/CydWGnGRpR30MeMxzFA55sbAWoXTFC7Wr0r0kmzhKBg/rn1X0jUCrRntmdjizRCXgZPg1+qw51TvY5HoF0ovK6g32PechfVxhqUGO0sER/2Bjt802Bmc9RwGVdmyGwbbEbqCgLwU9EB0Ye5OVoFEY0HFJbbwn6LNscE94A7utGeRgIn/4gD6fK0xL8pG6LvdvkZJD1mi4N6JpGEb4Mi9XnZunb9cBb/XCLuFoZspc4cbm8/RBVAhH3AN9Uvn6dwRDGxfTt2RhxiBWWB3ctpyPwk/Go+VyOWqWNUNy9HkmVTk8e42tKHuYrz0E3dXJtg7T5NTI9Q8z0m0dM/it/E6wk6xe/m4QgNLQ53ChHqzyVr2AbUduSZZK0+cfQBxcTpG3ednDJDT2HTOUHaOMvtHctu0L/dC9/mEfhmr6BhBSTQZMUCYur8Rb0+Cyd8lUNjo09FkQ6tH1bhyZ+IVfTVlJ9E1W0HYTckaExZlFGIXHdNzr7ZofkWgtZfQ5lmVNqCFqxp51g5K+JWxGiA9VHtnjd7XK7OXu7J+b7bnkoWro89hjgsbKM8asqCX5avGeSN/kA9jDfMscV4QUzU8gJ067L0hlh3nXZZy2EbAf8tUlXMEYjhZMgfQ2gkbU0MeCxFhXmQcdW19vKRfpO7IANc+ez/2/YmFN/oozsirSx6SACCp+w5RXJLY9Lnlp19DHLJNgqDHbmHYkX60fEOgD9rB4XabgSa6q+oPxV40+HzH2eBXUg30DB/LTd+bUrYa+LlurbPNRDGDJBTm0cuDpY6ooFJdGk1FXDzr3D+UKgyvRx/ao4CAI9BJ+XJRvueWsksf06bj5Fvq8FNzZUJSxHWzGKkugx5RNBfocm/6GoCMYWQ5YgmSrWC9rFvpd0jdfQhm/vO51UrggUCXl6SNdMF7NvRjNtdhurLJd2cb6q3SfcQFFnkjVlMwQVf4g1vxZnj68B4GWrQuINkVD5YJjbUlPtpqX7LwGKOxoKHk61gF+tPoalKry9LHd4SKHQZmoqwOkTeoS/iq7D2Da8v/MelQqQ63CCvRRhLn6B7jYXu13Qjnjr/I6AK2VrDHg/6krUpUCVneUpA/lRIwm/VuagmwrLo64vMbnZcjtD0AfUT8MYOg/8/DmUiz0i8FGfbOH4dITE65ApT4LIy7ePeJyqhxxMVzQCKGkECh92NCk28eV6cPg7EVyEpraLdGz9HlcuGaaNxXWhfG+jhGFYZiYleN9c7guvojfZA+vJttV/eElg6FuA6XPnlJyGo8fXiHajLF8Usr7fdjlYoxStDkh1aLNHnTGEXHlFjWnc+PIMhwrbx3hElw2bIoqgeo+Uy50z9DrFG8dYq4Do4WQ69hKMSIu13FJ5FxHeKyS65iAvS/WFFnUZ9MJxKqy4XJ12sD9aok9Y9Ql0FXmNGEAX7lMG+mzfIYi02ZmmbYukXe1W8yuUqbtDBLBx/quy6H0JMpLQAl1JfqcDf0p4ohC8BqmapN2qy3lBvSE7RCHaLhMd81TcZ5XceRWC1glzwuTPc0+/zUwlNRVql360FeLuFgQU0Z81pfNzVQa6c4jp+0Ged56EIY4UU4r+CTpH1UZMLEXnlMwBYJYoY8csKMqxvtS+kUhLcCapJRmJjglRfSx9J0emJl/RTUu0aFCjQuLi/LDJpgpoOrHYP/qqtFm2KuCPncSyLpq0k+P6xMtcPd9V/WYCuy5i06pCqvi+eJSrgOaRDDmJIJlE/MDUJbsH12VvgkUQoWc/comVueDBpMDk5PCTrNH9X23xF5vo67vS5Lo6fq+DX04Aq4gmk00MjsSf00uh1iVvsYYfiQ3jNDpMAGTYtvOird5C4NNj6pL7wtoxnI2nribQbc7O3AFFZWqS9lg44RF/cBUvfJHuny56ECwQqvS11jDrhMxFc1N609s3npp7nmV9qDPcaeYogGMkEw1WV2srG32lsaTtc0sXsZZySe2r+MwXmcEemubSyk+Q9+E26vgPI9NljcCd0aVSLqIBIF61CbqaSvrkzkjxNtyB7jsgPdsZT2EsrHLJILfyloJ2g+Px+EcyXZ6ZfoaHiQIEHNP+elnOEJJvBgs7BBJ0vSwy9bpdtR9HTNhS2IRmqmQXXyyr2MCCiZghanni+jsBIQEuaU9QV/jBHtVi2nVobAn4lZEorwmK9GkfOsqEpaJTZLvKoIcxb/pKvJBnyImtiP9nCIoaHmGvsaWPv8mG8JfZLe5bnn6bj1tK6GnLT6W72kDhV+xp23JKu7YF9t5aaPfnEVfoG+yh54ypv78vc6QDQcrswJ9V/TSbH3mcDTOxwAgdB/ISYqnOyrBHeVfOKAZSIZRs3rAiq8uZflRLu/V26tt2jB+XF2aw0/381qw9/F5o91e2GczetzTE/E+obYZfGY+tzPZKAokMdpOnqDvW5vx78M6cUvIzKQEZ+DdNH+BJGPeTG5G0TK7hsnTF31+Foj0BdlVefqumi67GV9v4CzdRCpuJtHAaUzi7OzpP6Lva834iXuHMRdCC0fTzRDx0czmFqPAvDsaV7Yi9BlLW0bZuX1G3wZn1+UzPlZsZBcVGhP8DtyMj9A76wMirXtp5PVmrWk4u11+ssquEZSeh1BO+p6apOF4ykka7GNP9Nu95XDecYMgcDvzj/Tz2ERxDUv5dThRVOHsZuK+aO1m9t7FUYTdfrz2pSuXHvtdSB9ouNwcl/aDjPKz8Mdpmo5/aLCxd26mafP8lYRsIX1Mz0uJo0Y9RegTxTOsILOU1a9TsNFg9QyrAvo0E9RSiCzmDMI3QzF9PnOMyRb0acrFZd/6pVBseuTqpAw9sVkQBnHbt93da9bTIz8hzi69qGaX9jhvAJNOvIrnQT279AbvQ5qcG6GPfOx9wXtTuBW0+PDOG0/OVc5tdnOqzDsUzW1+W6tFMzU83wi8q6eG59HWzqzP1ZzXM+tzSE2tSIX5NyYg9Xj7tzX5fG1PqzJdPT7kA2QBKjux4n8H8W0x8iB6xdtivJkp7jOtyNZU074BxHcVRWXeVbTbojBqwbuKDu/8rqJHb8o6qMIA1nJh9y+msT8MB2/9pizle9r4vVhnzll+bzz239ZSzqB5S2CTvSVQUylb4wbou5KiTdCoXr+jsgAT7RtSofiyfrW7Huz9vLZ0BIovNdG/Go2id0DXr3YvAeXozzvqV7uXANCX69is6SsBRp/cCJXWD+9jQG1eJE/+gFEH750AKoany9GyKu3acNGDvWdIKkyGDh98eXfHrAhb1p/Cbx4etFGYh5et7Q8gZR353LiHM6vZD3/0fTV/DZM5EIXNLOTirF3WrIHfOiD1EG2uE4Uge7BexyHXKvTl8UH/c1hzPnfbIknCF5vjgl6DGjeMNcNja5u5HI6KQnbK3uKN0xgl4UjTahnIvA6VlkCs7k1KVrXiKwNnpqgdKDGIvkaGdC7VuWDSqXeN8vC6BoHsLg6IsalFrxKs08cFoSRJEMLDdU1eZThWL113u2nPqs2VGjVq1KhRo0aNGjVq1HgF/gMQqio2liNhFQAAAABJRU5ErkJggg==;" parent="1" vertex="1">
          <mxGeometry x="395" y="160" width="110" height="55" as="geometry" />
        </mxCell>
        <mxCell id="P9Sf4jroClefKWnIGwKn-11" value="Divider" style="text;strokeColor=none;fillColor=none;html=1;fontSize=24;fontStyle=1;verticalAlign=middle;align=center;" parent="1" vertex="1">
          <mxGeometry x="355" y="110" width="190" height="40" as="geometry" />
        </mxCell>
        <mxCell id="P9Sf4jroClefKWnIGwKn-13" value="Istio" style="sketch=0;html=1;verticalAlign=top;labelPosition=center;verticalLabelPosition=bottom;align=center;spacingTop=-6;fontSize=11;fontStyle=1;fontColor=#999999;shape=image;aspect=fixed;imageAspect=0;image=data:image/svg+xml,PHN2ZyB4bWxucz0iaHR0cDovL3d3dy53My5vcmcvMjAwMC9zdmciIHhtbG5zOnY9Imh0dHBzOi8vdmVjdGEuaW8vbmFubyIgd2lkdGg9IjE2MCIgaGVpZ2h0PSIyNDAiIHZpZXdCb3g9IjAgMCAxNjAgMjQwIj4mI3hhOwk8c3R5bGUgdHlwZT0idGV4dC9jc3MiPiYjeGE7CS5zdDB7ZmlsbDojNDY2YmIwO30mI3hhOwk8L3N0eWxlPiYjeGE7CTxwYXRoIGNsYXNzPSJzdDAiIGQ9Ik02MCAyNDBMMCAyMTBoMTYwem0wLTE2MEwwIDIwMGw2MC0xMHpNNzAgMHYxOTBsOTAgMTB6Ii8+JiN4YTs8L3N2Zz4=;" parent="1" vertex="1">
          <mxGeometry x="421.07" y="230" width="57.86" height="90" as="geometry" />
        </mxCell>
      </root>
    </mxGraphModel>
  </diagram>
</mxfile>
